<?xml version="1.0" standalone="no"?>
<!DOCTYPE svg PUBLIC "-//W3C//DTD SVG 20010904//EN"
 "http://www.w3.org/TR/2001/REC-SVG-20010904/DTD/svg10.dtd">
<svg version="1.0" xmlns="http://www.w3.org/2000/svg"
 width="568.000000pt" height="568.000000pt" viewBox="0 0 568.000000 568.000000"
 preserveAspectRatio="xMidYMid meet">
<metadata>
Created by potrace 1.14, written by Peter Selinger 2001-2017
</metadata>
<g transform="translate(0.000000,568.000000) scale(0.100000,-0.100000)"
fill="inherit" stroke="none">
<path d="M2799 5621 c-33 -69 -73 -157 -109 -236 -15 -33 -46 -98 -68 -145
-22 -47 -63 -137 -92 -200 -29 -63 -77 -166 -106 -229 -30 -62 -54 -115 -54
-116 0 -2 -23 -52 -52 -112 -28 -59 -52 -112 -54 -118 -2 -8 -203 -442 -259
-560 -27 -58 -93 -201 -113 -245 -22 -49 -85 -186 -135 -290 -17 -36 -31 -67
-32 -70 -2 -7 -30 -68 -128 -277 -46 -100 -82 -185 -79 -188 3 -3 0 -5 -6 -5
-7 0 -12 -4 -12 -9 0 -6 -25 -62 -55 -126 -30 -65 -55 -118 -55 -120 0 -1 -22
-49 -49 -106 -27 -57 -71 -153 -99 -214 -69 -152 -149 -324 -217 -470 -18 -38
-44 -95 -58 -125 -41 -90 -86 -188 -122 -264 -18 -39 -73 -159 -123 -266 -49
-107 -105 -229 -124 -270 -20 -41 -48 -102 -63 -135 -64 -139 -150 -326 -187
-405 -47 -98 -81 -173 -83 -180 0 -3 -15 -34 -33 -69 -17 -36 -30 -66 -28 -68
1 -2 1189 -2 2638 -1 l2635 3 -25 55 c-14 30 -47 101 -74 157 -26 56 -48 107
-48 113 0 5 -4 10 -10 10 -5 0 -9 3 -8 8 2 9 -8 32 -72 167 -29 61 -63 135
-77 165 -25 54 -80 169 -151 320 -20 41 -36 77 -37 80 -2 8 -64 138 -94 200
-15 30 -28 57 -29 60 -1 5 -23 53 -117 255 -21 44 -52 112 -70 150 -18 39 -52
111 -75 160 -23 50 -57 122 -75 160 -18 39 -52 111 -75 160 -23 50 -54 117
-70 150 -127 273 -196 420 -285 610 -58 122 -98 208 -100 215 -3 8 -61 133
-131 279 -35 73 -64 135 -64 137 0 2 -23 52 -51 111 -28 60 -64 135 -79 168
-15 33 -47 101 -70 150 -23 50 -55 117 -70 150 -15 33 -53 113 -84 179 -31 65
-56 119 -56 121 0 1 -28 60 -62 131 -34 71 -62 131 -63 134 0 3 -13 30 -27 60
-64 137 -108 230 -138 295 -18 39 -57 121 -86 183 -30 62 -54 114 -54 117 0 2
-22 51 -50 107 -27 56 -50 107 -50 113 0 5 -6 17 -13 26 -10 14 -16 8 -38 -40z
m155 -1932 c27 -57 70 -149 96 -204 26 -55 62 -131 80 -170 73 -157 124 -265
171 -362 27 -57 49 -105 49 -107 0 -2 23 -53 52 -113 28 -59 52 -110 53 -113
0 -3 24 -54 53 -113 29 -60 52 -110 52 -112 0 -4 128 -276 140 -297 6 -10 10
-25 10 -33 0 -8 4 -15 9 -15 5 0 13 -10 17 -22 7 -23 34 -84 116 -258 90 -189
109 -236 124 -301 9 -40 11 -182 3 -219 -4 -19 -10 -46 -12 -60 -12 -64 -74
-183 -127 -244 -102 -118 -242 -197 -391 -222 -41 -7 -2106 -14 -2120 -7 -4 1
7 31 23 65 46 97 71 150 151 328 41 91 89 197 107 235 17 39 38 84 45 100 7
17 36 79 64 138 28 60 51 110 51 112 0 1 22 49 49 106 26 57 58 127 71 154 12
28 35 76 51 109 16 32 29 64 29 72 0 8 5 14 10 14 6 0 10 4 10 9 0 9 44 108
108 241 15 30 27 57 27 60 0 3 20 46 44 95 24 50 45 95 47 100 1 6 31 71 67
145 35 74 74 158 87 185 12 28 37 82 56 121 19 39 34 76 34 81 0 6 7 16 15 23
9 7 13 15 11 17 -2 3 11 35 29 71 18 37 44 92 58 122 13 30 41 91 62 135 21
44 52 112 70 150 18 39 52 112 76 163 l44 94 40 -84 c22 -46 62 -131 89 -189z"/>
<path d="M2740 2793 c-50 -8 -190 -54 -190 -64 0 -5 -5 -9 -12 -9 -19 0 -89
-51 -144 -105 -131 -128 -182 -250 -195 -460 -1 -13 10 -104 15 -130 2 -11 12
-40 21 -65 9 -25 19 -54 22 -65 21 -68 170 -240 239 -275 16 -8 36 -19 44 -25
23 -18 129 -53 190 -64 51 -9 206 -8 240 2 124 33 204 72 281 138 101 85 194
240 216 356 9 51 9 218 -1 268 -8 41 -35 113 -65 173 -37 76 -199 242 -236
242 -5 0 -16 6 -24 13 -13 11 -98 48 -123 53 -5 1 -9 3 -10 4 -11 9 -223 19
-268 13z"/>
</g>
</svg>
