<svg width="66.000000" height="71.000000" viewBox="0 0 66 71" fill="none" xmlns="http://www.w3.org/2000/svg" xmlns:xlink="http://www.w3.org/1999/xlink">
	<desc>
			Created with Pixso.
	</desc>
	<defs/>
	<path id="Vector" d="M32.8214 0L0 71L66 71L32.8214 0ZM14.0075 62.0605L15.2344 59.4371L17.9365 53.485L21.516 45.7133L32.8214 21.4501L46.6115 50.9147C47.1717 52.1145 47.4145 53.4325 47.3176 54.7477C47.2208 56.063 46.7874 57.3334 46.0571 58.4427C45.3268 59.5519 44.3232 60.4644 43.1381 61.0965C41.9529 61.7286 40.6243 62.0601 39.2739 62.0605L14.0075 62.0605Z" fill="#5F4AF0" fill-opacity="1.000000" fill-rule="nonzero"/>
	<path id="Vector" d="M41 44C41 48.4183 37.4183 52 33 52C28.5817 52 25 48.4183 25 44C25 39.5817 28.5817 36 33 36C37.4183 36 41 39.5817 41 44Z" fill="#5F4AF0" fill-opacity="1.000000" fill-rule="evenodd"/>
</svg>
