<svg width="24.000000" height="24.000000" viewBox="0 0 24 24" fill="none" xmlns="http://www.w3.org/2000/svg" xmlns:xlink="http://www.w3.org/1999/xlink">
	<desc>
			Created with Pixso.
	</desc>
	<defs/>
	<path id="Vector" d="M0 12.0669C0 18.0332 4.33301 22.9941 10 24L10 15.333L7 15.333L7 12L10 12L10 9.33301C10 6.33301 11.933 4.66699 14.667 4.66699C15.533 4.66699 16.467 4.7998 17.333 4.93311L17.333 8L15.8 8C14.333 8 14 8.73291 14 9.66699L14 12L17.2 12L16.667 15.333L14 15.333L14 24C19.667 22.9941 24 18.0342 24 12.0669C24 5.43018 18.6 0 12 0C5.40002 0 0 5.43018 0 12.0669Z" fill="#F6F8FF" fill-opacity="1.000000" fill-rule="evenodd"/>
</svg>
