<svg width="24.000000" height="24.000000" viewBox="0 0 24 24" fill="none" xmlns="http://www.w3.org/2000/svg" xmlns:xlink="http://www.w3.org/1999/xlink">
	<desc>
			Created with Pixso.
	</desc>
	<defs/>
	<path id="Vector" d="M8.91479 8.36279L13.3716 8.36279L13.3716 10.583C14.0136 9.30615 15.66 8.15869 18.1332 8.15869C22.8744 8.15869 24 10.7002 24 15.3638L24 24L19.2 24L19.2 16.4258C19.2 13.77 18.558 12.2725 16.9236 12.2725C14.6568 12.2725 13.7148 13.8862 13.7148 16.4243L13.7148 24L8.91479 24L8.91479 8.36279ZM0.684021 23.7959L5.48401 23.7959L5.48401 8.15869L0.684021 8.15869L0.684021 23.7959ZM6.17157 3.06006C6.17175 3.4624 6.09198 3.86084 5.93689 4.23193C5.78174 4.60303 5.55438 4.93994 5.26801 5.22217C4.68768 5.79932 3.90216 6.12207 3.08398 6.12012C2.26727 6.11963 1.48358 5.79736 0.902405 5.22363C0.617065 4.93994 0.390442 4.60303 0.235596 4.23193C0.0807495 3.86035 0.000671387 3.4624 0 3.06006C0 2.24756 0.323975 1.47021 0.903625 0.896484C1.48425 0.321777 2.26831 -0.000488281 3.08521 0C3.90363 0 4.68842 0.322754 5.26801 0.896484C5.84637 1.47021 6.17157 2.24756 6.17157 3.06006Z" fill="#F6F8FF" fill-opacity="1.000000" fill-rule="evenodd"/>
</svg>
