<svg xmlns="http://www.w3.org/2000/svg" width="45.5" height="38.871" viewBox="0 0 45.5 38.871">
  <g id="Careers-icon" transform="translate(137.72 -2.551)">
    <g id="Group_391289" data-name="Group 391289" transform="translate(-136.97 3.301)">
      <line id="Line_12125" data-name="Line 12125" x2="13.133" transform="translate(15.89 22.855)" fill="none" stroke="#a6a6a6" stroke-linecap="round" stroke-linejoin="round" stroke-width="1.5"/>
      <rect id="Rectangle_303663" data-name="Rectangle 303663" width="2.765" height="8.295" transform="translate(12.783 18.708)" fill="none" stroke="#a6a6a6" stroke-linecap="round" stroke-linejoin="round" stroke-width="1.5"/>
      <rect id="Rectangle_372094" data-name="Rectangle 372094" width="2.765" height="8.295" transform="translate(26.648 28.73) rotate(90)" fill="none" stroke="#a6a6a6" stroke-linecap="round" stroke-linejoin="round" stroke-width="1.5"/>
      <rect id="Rectangle_303664" data-name="Rectangle 303664" width="2.765" height="8.295" transform="translate(29.366 18.708)" fill="none" stroke="#a6a6a6" stroke-linecap="round" stroke-linejoin="round" stroke-width="1.5"/>
      <path id="Path_643736" data-name="Path 643736" d="M1750.756,7159h-10.7a1.832,1.832,0,0,1-2.073-2.073v-8.393c0-3.456,2.073-5.529,5.528-5.529h32.945c3.455,0,5.528,2.073,5.528,5.529v8.393a1.832,1.832,0,0,1-2.073,2.073h-9.251" transform="translate(-1737.982 -7136.088)" fill="none" stroke="#a6a6a6" stroke-linecap="round" stroke-linejoin="round" stroke-width="1.5"/>
      <path id="Path_1032646" data-name="Path 1032646" d="M0,14.515V5.53C0,2.074,2.073,0,5.528,0H37.09c3.455,0,5.528,2.074,5.528,5.53v8.986" transform="translate(43.309 37.371) rotate(180)" fill="none" stroke="#a6a6a6" stroke-linecap="round" stroke-linejoin="round" stroke-width="1.5"/>
      <path id="Path_1032645" data-name="Path 1032645" d="M2840,11477.911v-3.456a3.466,3.466,0,0,1,3.456-3.455h5.53a3.466,3.466,0,0,1,3.456,3.455v3.456" transform="translate(-2823.764 -11471)" fill="none" stroke="#a6a6a6" stroke-linecap="round" stroke-linejoin="round" stroke-width="1.5"/>
    </g>
  </g>
</svg>
