<svg xmlns="http://www.w3.org/2000/svg" width="53.04" height="46" viewBox="0 0 53.04 46">
  <g id="Leaders-Bios-Icon" transform="translate(-2.5 -6.5)">
    <path id="Path_1032841" data-name="Path 1032841" d="M3.5,25.5v6.16c0,1.848-.088,4.4,1.76,4.4v8.8H12.3v-8.8c1.848,0,1.76-2.552,1.76-4.4V25.5Z" transform="translate(0 -2.16)" fill="none" stroke="#a6a6a6" stroke-miterlimit="10" stroke-width="2"/>
    <path id="Path_1032842" data-name="Path 1032842" d="M49.5,25.5v6.16c0,2.2.88,3.52,1.76,3.52v9.68H58.3V35.18c.968,0,1.76-1.672,1.76-3.52V25.5Z" transform="translate(-5.52 -2.16)" fill="none" stroke="#a6a6a6" stroke-miterlimit="10" stroke-width="2"/>
    <path id="Path_1032843" data-name="Path 1032843" d="M23.5,25.5H39.34V36.94c0,2.464-1.056,4.4-3.52,4.4V53.66h-8.8V41.34c-2.464,0-3.52-1.936-3.52-4.4Z" transform="translate(-2.4 -2.16)" fill="none" stroke="#a6a6a6" stroke-miterlimit="10" stroke-width="2"/>
    <circle id="Ellipse_32111" data-name="Ellipse 32111" cx="3.5" cy="3.5" r="3.5" transform="translate(45.539 12.5)" fill="none" stroke="#a6a6a6" stroke-miterlimit="10" stroke-width="2"/>
    <circle id="Ellipse_32112" data-name="Ellipse 32112" cx="3.5" cy="3.5" r="3.5" transform="translate(5.539 12.5)" fill="none" stroke="#a6a6a6" stroke-miterlimit="10" stroke-width="2"/>
    <ellipse id="Ellipse_32113" data-name="Ellipse 32113" cx="6.5" cy="6" rx="6.5" ry="6" transform="translate(22.539 7.5)" fill="none" stroke="#a6a6a6" stroke-miterlimit="10" stroke-width="2"/>
  </g>
</svg>
