<svg xmlns="http://www.w3.org/2000/svg" width="43.801" height="43.93" viewBox="0 0 43.801 43.93">
  <g id="Fast-Facts-Icon" transform="translate(-2.5 -2.459)">
    <g id="Group_445107" data-name="Group 445107" transform="translate(18.596 6.879)">
      <path id="Path_1032833" data-name="Path 1032833" d="M25.232,31.913a.664.664,0,0,1-.512-.219.707.707,0,0,1,0-1.024l21.95-21.95a.724.724,0,1,1,1.024,1.024l-21.95,21.95A.664.664,0,0,1,25.232,31.913Z" transform="translate(-24.5 -8.5)" fill="#a6a6a6"/>
    </g>
    <g id="Group_445108" data-name="Group 445108" transform="translate(30.436 2.459)">
      <path id="Path_1032834" data-name="Path 1032834" d="M47.426,18.366a6.62,6.62,0,0,1-4.536-2.195c-1.829-1.829-2.561-3.731-2.049-5.634,1.171-4.975,10.024-7.9,10.39-8.048a1.033,1.033,0,0,1,.658.073.665.665,0,0,1,.293.585V6.806H55.84a.9.9,0,0,1,.585.293.711.711,0,0,1,.073.658c-.146.366-3.073,9.219-8.048,10.39C48.231,18.366,47.865,18.366,47.426,18.366ZM50.792,4.245C48.524,5.123,43.11,7.61,42.3,10.9c-.366,1.39.219,2.78,1.683,4.244s2.853,2.049,4.244,1.683c3.073-.732,5.561-5.707,6.658-8.487H51.524a.691.691,0,0,1-.732-.732Z" transform="translate(-40.682 -2.459)" fill="#a6a6a6"/>
    </g>
    <g id="Group_445109" data-name="Group 445109" transform="translate(36.156 4.391)">
      <path id="Path_1032835" data-name="Path 1032835" d="M49.232,13.441a.691.691,0,0,1-.732-.732V5.832a.732.732,0,0,1,1.463,0v6.878A.691.691,0,0,1,49.232,13.441Z" transform="translate(-48.5 -5.1)" fill="#a6a6a6"/>
    </g>
    <g id="Group_445110" data-name="Group 445110" transform="translate(2.5 40.242)">
      <path id="Path_1032836" data-name="Path 1032836" d="M3.232,60.246a.664.664,0,0,1-.512-.219.707.707,0,0,1,0-1.024L7.4,54.319a.724.724,0,0,1,1.024,1.024L3.744,60.026A.664.664,0,0,1,3.232,60.246Z" transform="translate(-2.5 -54.1)" fill="#a6a6a6"/>
    </g>
    <g id="Group_445111" data-name="Group 445111" transform="translate(30.01 40.242)">
      <path id="Path_1032837" data-name="Path 1032837" d="M45.514,60.246A.664.664,0,0,1,45,60.026l-4.683-4.683a.724.724,0,0,1,1.024-1.024L46.026,59a.707.707,0,0,1,0,1.024A.664.664,0,0,1,45.514,60.246Z" transform="translate(-40.1 -54.1)" fill="#a6a6a6"/>
    </g>
    <g id="Group_445112" data-name="Group 445112" transform="translate(2.5 12.732)">
      <path id="Path_1032838" data-name="Path 1032838" d="M19.328,50.156A16.828,16.828,0,1,1,36.156,33.328,16.83,16.83,0,0,1,19.328,50.156Zm0-32.193A15.365,15.365,0,1,0,34.693,33.328,15.363,15.363,0,0,0,19.328,17.963Z" transform="translate(-2.5 -16.5)" fill="#a6a6a6"/>
    </g>
    <g id="Group_445113" data-name="Group 445113" transform="translate(8.353 18.585)">
      <path id="Path_1032839" data-name="Path 1032839" d="M21.475,46.45A10.975,10.975,0,1,1,32.45,35.475,10.96,10.96,0,0,1,21.475,46.45Zm0-20.486a9.512,9.512,0,1,0,9.512,9.512A9.493,9.493,0,0,0,21.475,25.963Z" transform="translate(-10.5 -24.5)" fill="#a6a6a6"/>
    </g>
    <g id="Group_445114" data-name="Group 445114" transform="translate(14.207 24.439)">
      <path id="Path_1032840" data-name="Path 1032840" d="M23.622,42.743a5.122,5.122,0,1,1,5.122-5.122A5.09,5.09,0,0,1,23.622,42.743Zm0-8.78a3.658,3.658,0,1,0,3.658,3.658A3.623,3.623,0,0,0,23.622,33.963Z" transform="translate(-18.5 -32.5)" fill="#a6a6a6"/>
    </g>
    <g id="Group_445115" data-name="Group 445115" transform="translate(17.865 28.097)">
      <circle id="Ellipse_32110" data-name="Ellipse 32110" cx="1.463" cy="1.463" r="1.463" fill="#a6a6a6"/>
    </g>
  </g>
</svg>
