<svg width="24.000000" height="24.000000" viewBox="0 0 24 24" fill="none" xmlns="http://www.w3.org/2000/svg" xmlns:xlink="http://www.w3.org/1999/xlink">
	<desc>
			Created with Pixso.
	</desc>
	<defs/>
	<path id="Vector" d="M7.05273 0.0717773C8.33234 0.0131836 8.74036 0 12 0C15.2596 0 15.6677 0.0141602 16.9462 0.0717773C18.2247 0.129883 19.0975 0.333984 19.8611 0.629395C20.6607 0.931641 21.3862 1.40381 21.9862 2.01514C22.5971 2.61377 23.0684 3.33838 23.3694 4.13867C23.6662 4.90234 23.8691 5.77539 23.928 7.05176C23.9869 8.3335 24 8.74121 24 12C24 15.2598 23.9858 15.6675 23.928 16.9473C23.8702 18.2236 23.6662 19.0962 23.3694 19.8599C23.0684 20.6606 22.5963 21.3862 21.9862 21.9863C21.3862 22.5972 20.6607 23.0684 19.8611 23.3696C19.0975 23.666 18.2247 23.8691 16.9484 23.9282C15.6677 23.9868 15.2596 24 12 24C8.74036 24 8.33234 23.9858 7.05273 23.9282C5.77637 23.8701 4.90363 23.666 4.14001 23.3696C3.33917 23.0684 2.61365 22.5962 2.01379 21.9863C1.40332 21.3867 0.930908 20.6616 0.629456 19.8613C0.333801 19.0977 0.13092 18.2246 0.0720215 16.9482C0.0130615 15.6665 0 15.2588 0 12C0 8.74023 0.0141602 8.33252 0.0720215 7.05371C0.129822 5.77539 0.333801 4.90234 0.629456 4.13867C0.931335 3.33838 1.40411 2.61328 2.01489 2.01367C2.61389 1.40332 3.33868 0.931152 4.13892 0.629395C4.90253 0.333984 5.77527 0.130859 7.05164 0.0717773L7.05273 0.0717773ZM16.8491 2.23193C15.5836 2.17432 15.204 2.16211 12 2.16211C8.79602 2.16211 8.41638 2.17432 7.15088 2.23193C5.98035 2.28564 5.34546 2.48096 4.92218 2.64551C4.36255 2.86377 3.96216 3.12207 3.54218 3.54199C3.14404 3.92969 2.83765 4.40088 2.64545 4.92236C2.48071 5.34521 2.28546 5.98047 2.23199 7.15088C2.17419 8.4165 2.16217 8.7959 2.16217 12C2.16217 15.2041 2.17419 15.5835 2.23199 16.8491C2.28546 18.0195 2.48071 18.6548 2.64545 19.0776C2.83746 19.5981 3.14398 20.0703 3.54218 20.458C3.92944 20.856 4.40179 21.1626 4.92218 21.3545C5.34546 21.519 5.98035 21.7144 7.15088 21.7681C8.41638 21.8257 8.79492 21.8379 12 21.8379C15.2051 21.8379 15.5836 21.8257 16.8491 21.7681C18.0197 21.7144 18.6545 21.519 19.0778 21.3545C19.6375 21.1362 20.0378 20.8779 20.4578 20.458C20.856 20.0703 21.1625 19.5981 21.3546 19.0776C21.5193 18.6548 21.7145 18.0195 21.768 16.8491C21.8258 15.5835 21.8378 15.2041 21.8378 12C21.8378 8.7959 21.8258 8.4165 21.768 7.15088C21.7145 5.98047 21.5193 5.34521 21.3546 4.92236C21.1364 4.3623 20.8778 3.9624 20.4578 3.54199C20.0704 3.14404 19.5989 2.83789 19.0778 2.64551C18.6545 2.48096 18.0197 2.28564 16.8491 2.23193ZM10.4673 15.6992C11.3232 16.0557 12.2764 16.1035 13.1639 15.8354C14.0515 15.5669 14.8182 14.999 15.3334 14.228C15.8485 13.457 16.0801 12.5312 15.9884 11.6084C15.8968 10.686 15.4877 9.82373 14.8309 9.16895C14.4122 8.75049 13.9061 8.43018 13.3488 8.23096C12.7914 8.03174 12.1968 7.9585 11.6078 8.0166C11.0188 8.07471 10.45 8.2627 9.94232 8.56689C9.43469 8.87158 9.00079 9.28467 8.672 9.77637C8.34314 10.2686 8.1275 10.8276 8.04059 11.4131C7.95367 11.9985 7.99762 12.5962 8.16931 13.1626C8.341 13.729 8.63617 14.25 9.03351 14.689C9.43085 15.1274 9.92053 15.4727 10.4673 15.6992ZM7.63855 7.63867C8.2113 7.06592 8.89124 6.61133 9.63959 6.30127C10.3879 5.9917 11.19 5.83203 12 5.83203C12.81 5.83203 13.6121 5.9917 14.3604 6.30127C15.1088 6.61133 15.7887 7.06592 16.3615 7.63867C16.9342 8.21143 17.3885 8.89111 17.6985 9.63965C18.0085 10.3877 18.168 11.1899 18.168 12C18.168 12.8101 18.0085 13.6123 17.6985 14.3604C17.3885 15.1089 16.9342 15.7886 16.3615 16.3613C15.2047 17.5181 13.6359 18.168 12 18.168C10.3641 18.168 8.79529 17.5181 7.63855 16.3613C6.48181 15.2046 5.83197 13.6357 5.83197 12C5.83197 10.3643 6.48181 8.79541 7.63855 7.63867ZM19.536 6.75049C19.6779 6.6167 19.7916 6.45557 19.8702 6.27686C19.9487 6.09863 19.9907 5.90576 19.9935 5.71094C19.9964 5.51562 19.9601 5.32227 19.8867 5.14111C19.8134 4.96045 19.7045 4.79639 19.5665 4.6582C19.4285 4.52002 19.2643 4.41113 19.0835 4.33789C18.9026 4.26465 18.709 4.22852 18.5139 4.23096C18.3188 4.23389 18.1263 4.27588 17.9477 4.35449C17.7691 4.43311 17.6081 4.54688 17.4742 4.68896C17.2138 4.96484 17.0712 5.33154 17.0768 5.71094C17.0823 6.09033 17.2355 6.45264 17.5038 6.7207C17.7722 6.98926 18.1345 7.14258 18.5139 7.14795C18.8933 7.15332 19.2599 7.01074 19.536 6.75049Z" fill="#F6F8FF" fill-opacity="1.000000" fill-rule="evenodd"/>
</svg>
