<svg width="115.000000" height="90.000000" viewBox="0 0 115 90" fill="none" xmlns="http://www.w3.org/2000/svg" xmlns:xlink="http://www.w3.org/1999/xlink">
	<desc>
			Created with Pixso.
	</desc>
	<defs/>
	<path id="Combined-Shape" d="M17.2239 68.4985C17.2239 76.3853 24.0626 82.8041 32.4704 82.8041L38.7877 82.8041C40.9037 82.8041 42.621 84.416 42.621 86.402C42.621 88.3881 40.9037 90 38.7877 90L32.4704 90C19.8357 90 9.55725 80.3527 9.55725 68.4985L9.55267 52.5495L3.83334 52.5538C1.71735 52.5538 0 50.9419 0 48.9558C0 46.9698 1.71735 45.3578 3.83334 45.3578L13.3174 45.3523C13.3418 45.3519 13.3661 45.3516 13.3906 45.3516L13.4627 45.3536L101.531 45.3524C101.557 45.3519 101.583 45.3516 101.609 45.3516L101.68 45.3536L111.167 45.3578C113.283 45.3578 115 46.9698 115 48.9558C115 50.9419 113.283 52.5538 111.167 52.5538L105.442 52.5495L105.442 68.4985C105.442 80.3527 95.1638 90 82.5291 90L76.3702 90C74.2542 90 72.5369 88.3881 72.5369 86.402C72.5369 84.416 74.2542 82.8041 76.3702 82.8041L82.5291 82.8041C90.9369 82.8041 97.7755 76.3853 97.7755 68.4985L97.7755 52.5495L17.2193 52.5495L17.2239 68.4985ZM82.5286 0C95.1633 0 105.442 9.64734 105.442 21.4966L105.442 28.7598C105.442 30.7458 103.724 32.3577 101.608 32.3577C99.4924 32.3577 97.775 30.7458 97.775 28.7598L97.775 21.4966C97.775 13.6147 90.9364 7.19592 82.5286 7.19592L76.3697 7.19592C74.2537 7.19592 72.5364 5.58405 72.5364 3.59796C72.5364 1.61188 74.2537 0 76.3697 0L82.5286 0ZM38.7887 0C40.9047 0 42.6221 1.61188 42.6221 3.59796C42.6221 5.58405 40.9047 7.19592 38.7887 7.19592L32.4714 7.19592C24.0636 7.19592 17.2249 13.6147 17.2249 21.4966L17.2249 28.7598C17.2249 30.7458 15.5076 32.3577 13.3916 32.3577C11.2756 32.3577 9.55829 30.7458 9.55829 28.7598L9.55829 21.4966C9.55829 9.64734 19.8367 0 32.4714 0L38.7887 0Z" fill="#5F4AF0" fill-opacity="1.000000" fill-rule="evenodd"/>
</svg>
