<svg width="115.000000" height="115.000000" viewBox="0 0 115 115" fill="none" xmlns="http://www.w3.org/2000/svg" xmlns:xlink="http://www.w3.org/1999/xlink">
	<desc>
			Created with Pixso.
	</desc>
	<defs/>
	<path id="Combined-Shape" d="M44.8429 22.6474C47.2262 24.4792 48.5967 27.2109 48.5967 30.1418C48.5967 53.7674 49.4114 60.1251 52.7414 62.5442C54.9266 64.1228 57.9209 64.1067 68.0101 63.8319C72.6997 63.6972 78.7048 63.5248 86.5703 63.5248C89.7077 63.5248 92.6635 64.8394 94.667 67.1292C96.5275 69.2574 97.3421 72.0375 96.9128 74.7745C93.2359 98.0768 72.9804 115 48.7509 115C21.8683 115 0 93.5942 0 67.2855C0 46.4238 16.1163 25.5622 35.926 20.7886C39.0194 20.0504 42.3439 20.7401 44.8429 22.6474ZM38.4305 28.574C38.2543 28.574 38.0782 28.5956 37.902 28.6386C21.5545 32.5771 8.25632 49.9151 8.25632 67.2855C8.25632 89.1385 26.4203 106.918 48.7509 106.918C68.8798 106.918 85.7007 92.883 88.75 73.5407C88.772 73.3791 88.8491 72.9103 88.3977 72.3878C87.9684 71.8975 87.2859 71.6065 86.5703 71.6065C78.8039 71.6065 72.8759 71.7789 68.2468 71.9082C57.0402 72.2369 52.4056 72.3608 47.8261 69.0365C41.2778 64.2879 40.4169 56.3048 40.3458 33.9028L40.3404 30.1418C40.3404 29.6893 40.1423 29.3121 39.7459 29.0104C39.3772 28.7249 38.9093 28.574 38.4305 28.574ZM99.3533 14.7289C109.03 24.1953 115.172 36.6358 114.996 46.4254C114.93 50.2454 112.096 53.435 108.265 54.0007C100.79 55.1052 92.0382 55.4393 84.2938 55.4393C77.0833 55.4393 70.7369 55.1537 67.0876 54.949C62.4971 54.685 58.8423 51.1021 58.5781 46.6086C58.1488 39.4859 57.2185 21.3882 57.8791 7.39069C58.0607 3.32291 61.4183 0.0848083 65.5244 0.0147705C77.2869 -0.319275 89.4237 5.02545 99.3533 14.7289ZM66.2289 8.09113L66.1078 8.09113C65.5024 21.663 66.3996 39.195 66.8179 46.1399C66.8399 46.5547 67.1481 46.8565 67.5665 46.878C73.2248 47.1959 92.7207 48.0795 106.74 46.0591C106.773 38.4946 101.483 28.2362 93.5189 20.4454C85.3506 12.4606 75.6852 8.09113 66.2289 8.09113Z" fill="#5F4AF0" fill-opacity="1.000000" fill-rule="evenodd"/>
</svg>
