<svg width="116.000000" height="105.000000" viewBox="0 0 116 105" fill="none" xmlns="http://www.w3.org/2000/svg" xmlns:xlink="http://www.w3.org/1999/xlink">
	<desc>
			Created with Pixso.
	</desc>
	<defs/>
	<path id="Combined-Shape" d="M95.3718 64.1094C106.746 64.1094 116 73.2821 116 84.5547C116 95.8274 106.746 105 95.3718 105C83.9904 105 74.7303 95.8274 74.7303 84.5547C74.7303 73.2821 83.9904 64.1094 95.3718 64.1094ZM95.3718 74.0151C89.4723 74.0151 84.6732 78.7434 84.6732 84.5547C84.6732 90.3727 89.4723 95.0944 95.3718 95.0944C101.265 95.0944 106.057 90.3727 106.057 84.5547C106.057 78.7434 101.265 74.0151 95.3718 74.0151ZM46.9325 79.8582C49.6768 79.8582 51.904 82.077 51.904 84.8109C51.904 87.5449 49.6768 89.7638 46.9325 89.7638L5.16568 89.7638C2.42142 89.7638 0.194214 87.5449 0.194214 84.8109C0.194214 82.077 2.42142 79.8582 5.16568 79.8582L46.9325 79.8582ZM20.6349 0C32.0162 0 41.2697 9.1792 41.2697 20.4519C41.2697 31.7245 32.0162 40.8906 20.6349 40.8906C9.26016 40.8906 0 31.7245 0 20.4519C0 9.1792 9.26016 0 20.6349 0ZM20.6349 9.90564C14.742 9.90564 9.9429 14.6339 9.9429 20.4519C9.9429 26.2632 14.742 30.9849 20.6349 30.9849C26.5343 30.9849 31.3268 26.2632 31.3268 20.4519C31.3268 14.6339 26.5343 9.90564 20.6349 9.90564ZM107.324 15.8517C110.069 15.8517 112.296 18.0706 112.296 20.8046C112.296 23.5385 110.069 25.7573 107.324 25.7573L65.5642 25.7573C62.82 25.7573 60.5928 23.5385 60.5928 20.8046C60.5928 18.0706 62.82 15.8517 65.5642 15.8517L107.324 15.8517Z" fill="#5F4AF0" fill-opacity="1.000000" fill-rule="evenodd"/>
</svg>
