<svg width="143.000000" height="72.000000" viewBox="0 0 143 72" fill="none" xmlns="http://www.w3.org/2000/svg" xmlns:xlink="http://www.w3.org/1999/xlink">
	<desc>
			Created with Pixso.
	</desc>
	<defs>
		<clipPath id="clip3_47">
			<rect id="Atomo - nav logo" width="143.000000" height="72.000000" fill="white" fill-opacity="0"/>
		</clipPath>
	</defs>
	<rect id="Atomo - nav logo" width="143.000000" height="72.000000" fill="#FFFFFF" fill-opacity="0"/>
	<g clip-path="url(#clip3_47)">
		<path id="Vector" d="M89.9998 34.5518C90.0071 35.5009 89.804 36.4398 89.4052 37.3008C89.0167 38.1451 88.4545 38.8976 87.7555 39.5092C88.4523 40.1191 89.0142 40.8682 89.4052 41.7084C89.8018 42.5647 90.0048 43.4981 89.9998 44.4421L89.9998 50.9847L86.8193 50.9847L86.8193 44.4329C86.8271 43.6168 86.5381 42.8256 86.0061 42.2073C85.4741 41.589 84.7357 41.1858 83.9286 41.0731C83.7151 41.0944 83.5535 41.1066 83.4468 41.1066L77.153 41.1066L77.153 51L74 51L74 28L77.153 28L77.153 37.8658L83.4346 37.8658C83.5413 37.8658 83.7029 37.8658 83.9164 37.8995C84.7239 37.7932 85.4641 37.3931 85.996 36.7755C86.5434 36.1658 86.8407 35.3716 86.8285 34.5518L86.8285 28L89.9907 28L89.9998 34.5518Z" fill="#1A1A1A" fill-opacity="1.000000" fill-rule="nonzero"/>
		<path id="Vector" d="M95 51L92 51L92 28L95 28L95 51Z" fill="#1A1A1A" fill-opacity="1.000000" fill-rule="nonzero"/>
		<path id="Vector" d="M115.78 28.0002L119 28.0002L119 51L115.814 51L115.814 31.1152C114.173 31.1192 112.601 31.7582 111.441 32.8926C110.28 34.0269 109.627 35.5642 109.623 37.1684L109.623 46.1111L106.39 46.1111L106.39 37.1684C106.4 36.3736 106.244 35.5851 105.932 34.8514C105.619 34.1176 105.157 33.454 104.572 32.9013C104.007 32.33 103.328 31.8777 102.578 31.5721C101.827 31.2666 101.021 31.1142 100.208 31.1243L100.208 51L97 51L97 28.0002L100.217 28.0002C101.753 27.9936 103.267 28.3569 104.625 29.0581C105.983 29.7592 107.144 30.7767 108.005 32.0204C108.856 30.7907 110.001 29.7823 111.34 29.0822C112.704 28.3625 114.23 27.9904 115.78 28.0002Z" fill="#1A1A1A" fill-opacity="1.000000" fill-rule="nonzero"/>
		<path id="Vector" d="M131.943 27L143 51L139.662 51L131.927 34.2487L128.175 42.4529L126.977 45.0804L126.077 47.0924L125.183 49.0217L124.276 50.9877L121 50.9877L131.943 27Z" fill="#1A1A1A" fill-opacity="1.000000" fill-rule="nonzero"/>
		<path id="Vector" d="M139.029 48L124.942 48L124 51L140 51L139.029 48Z" fill="#1A1A1A" fill-opacity="1.000000" fill-rule="nonzero"/>
		<path id="Vector" d="M32.8214 3L0 74L66 74L32.8214 3ZM14.0075 65.0605L15.2344 62.4371L17.9365 56.485L21.516 48.7133L32.8214 24.4501L46.6115 53.9147C47.1717 55.1145 47.4145 56.4325 47.3176 57.7477C47.2208 59.063 46.7874 60.3334 46.0571 61.4427C45.3268 62.5519 44.3232 63.4644 43.1381 64.0965C41.9529 64.7286 40.6243 65.0601 39.2739 65.0605L14.0075 65.0605Z" fill="#5F4AF0" fill-opacity="1.000000" fill-rule="nonzero"/>
		<path id="Vector" d="M41 47C41 51.4183 37.4183 55 33 55C28.5817 55 25 51.4183 25 47C25 42.5817 28.5817 39 33 39C37.4183 39 41 42.5817 41 47Z" fill="#5F4AF0" fill-opacity="1.000000" fill-rule="evenodd"/>
	</g>
</svg>
