<svg width="31.000000" height="24.000000" viewBox="0 0 31 24" fill="none" xmlns="http://www.w3.org/2000/svg" xmlns:xlink="http://www.w3.org/1999/xlink">
	<desc>
			Created with Pixso.
	</desc>
	<defs/>
	<path id="Vector" d="M31 2.84668C29.86 3.32812 28.6353 3.65283 27.3479 3.7998C28.6763 3.04297 29.6702 1.85156 30.144 0.447754C28.8959 1.15381 27.5299 1.65088 26.1055 1.91699C25.1476 0.943359 23.8788 0.297363 22.4962 0.0805664C21.1135 -0.13623 19.6943 0.0874023 18.4589 0.717285C17.2235 1.34717 16.241 2.34814 15.6641 3.56396C15.087 4.78027 14.9478 6.14404 15.2679 7.44287C12.739 7.32227 10.265 6.69629 8.00659 5.60596C5.74811 4.51514 3.75568 2.98486 2.15851 1.11377C1.61237 2.01074 1.2984 3.05078 1.2984 4.15869C1.29779 5.15625 1.55566 6.13818 2.04913 7.01758C2.5426 7.89697 3.25641 8.64697 4.12726 9.20117C3.11731 9.17041 2.12964 8.91064 1.24652 8.44287L1.24652 8.521C1.2464 9.91943 1.75446 11.2754 2.68439 12.3579C3.61432 13.4404 4.90894 14.1831 6.34857 14.4604C5.41168 14.7017 4.42944 14.7373 3.47601 14.5645C3.88214 15.7681 4.67334 16.8203 5.73877 17.5742C6.8042 18.3281 8.09052 18.7461 9.41766 18.769C7.16473 20.4536 4.38239 21.3672 1.51819 21.3633C1.0108 21.3633 0.503906 21.335 0 21.2788C2.90735 23.0591 6.29169 24.0034 9.74811 24C21.4485 24 27.8448 14.771 27.8448 6.76709C27.8448 6.50684 27.838 6.24414 27.8257 5.98438C29.0699 5.12744 30.1439 4.06641 30.9973 2.85059L31 2.84668Z" fill="#F6F8FF" fill-opacity="1.000000" fill-rule="nonzero"/>
</svg>
